<?xml version="1.0" standalone="no"?><!DOCTYPE svg PUBLIC "-//W3C//DTD SVG 1.1//EN" "http://www.w3.org/Graphics/SVG/1.1/DTD/svg11.dtd"><svg t="1681977951566" class="icon" viewBox="0 0 1025 1024" version="1.1" xmlns="http://www.w3.org/2000/svg" p-id="1220" xmlns:xlink="http://www.w3.org/1999/xlink" width="200.1953125" height="200"><path d="M958.100223 1023.999795a23.470566 23.470566 0 0 1-16.771995-6.954241L83.655439 159.372765a23.675103 23.675103 0 0 1 33.492856-33.492856l857.672789 857.672788a23.726237 23.726237 0 0 1-16.720861 40.447098zM992.973701 929.299384a126.250171 126.250171 0 0 0 27.714699-111.574675C974.923352 635.43153 869.280237 519.050246 705.651016 470.779626h-16.260654A268.454191 268.454191 0 1 0 255.670658 191.791804z" fill="#A7B6C4" p-id="1221"></path><path d="M246.875587 306.127722A267.891715 267.891715 0 0 0 335.90011 470.779626h-21.578603C148.288982 518.794576 46.020718 633.437299 3.886194 819.974611a128.397804 128.397804 0 0 0 32.367905 113.671174A303.378803 303.378803 0 0 0 265.897484 1023.028247h493.802309a310.690983 310.690983 0 0 0 164.549635-39.73122z" fill="#A7B6C4" p-id="1222"></path></svg>